<?xml version="1.0" encoding="utf-8"?><svg viewBox="0 0 448 512" xmlns="http://www.w3.org/2000/svg" xmlns:xlink="http://www.w3.org/1999/xlink"><style>:root>svg{display:none}:root>svg:target{display:block}</style><svg viewBox="0 0 448 512" id="check" xmlns="http://www.w3.org/2000/svg"><!--! Font Awesome Pro 6.0.0 by @fontawesome - https://fontawesome.com License - https://fontawesome.com/license (Commercial License) Copyright 2022 Fonticons, Inc.--><path d="M438.6 105.4c12.5 12.5 12.5 32.7 0 45.2l-256 256c-12.5 12.5-32.7 12.5-45.2 0L9.372 278.6c-12.496-12.5-12.496-32.7 0-45.2 12.498-12.5 32.758-12.5 45.258 0L159.1 338.7l234.3-233.3c12.5-12.52 32.7-12.52 45.2 0z"/></svg><svg viewBox="0 0 448 512" id="check-double" xmlns="http://www.w3.org/2000/svg"><!--! Font Awesome Pro 6.0.0 by @fontawesome - https://fontawesome.com License - https://fontawesome.com/license (Commercial License) Copyright 2022 Fonticons, Inc.--><path d="M182.6 246.6c-12.5 12.5-32.7 12.5-45.2 0l-80.03-80c-12.49-12.5-12.49-32.7 0-45.2 12.5-12.5 32.76-12.5 45.23 0l56.5 57.3L297.4 41.37c12.5-12.49 32.7-12.49 45.2 0 12.5 12.5 12.5 32.76 0 45.26l-160 159.97zm0 224c-12.5 12.5-32.7 12.5-45.2 0L9.372 342.6c-12.496-12.5-12.496-32.7 0-45.2 12.498-12.5 32.758-12.5 45.258 0L159.1 402.7l234.3-233.3c12.5-12.5 32.7-12.5 45.2 0s12.5 32.7 0 45.2l-256 256z"/></svg></svg>